<?xml version="1.0" encoding="UTF-8" standalone="no"?>
<!DOCTYPE svg PUBLIC "-//W3C//DTD SVG 1.1//EN" "http://www.w3.org/Graphics/SVG/1.1/DTD/svg11.dtd">
<svg width="100%" height="100%" viewBox="0 0 64 64" version="1.1" xmlns="http://www.w3.org/2000/svg" xmlns:xlink="http://www.w3.org/1999/xlink" xml:space="preserve" xmlns:serif="http://www.serif.com/" style="fill-rule:evenodd;clip-rule:evenodd;stroke-linejoin:round;stroke-miterlimit:2;">
    <path d="M31.957,0.311C23.275,0.311 15.635,3.524 9.731,9.514C3.653,15.678 0.354,23.666 0.354,32C0.354,40.422 3.566,48.236 9.644,54.313C15.722,60.391 23.622,63.69 31.957,63.69C40.291,63.69 48.366,60.391 54.617,54.227C60.521,48.41 63.646,40.683 63.646,32C63.646,23.405 60.521,15.592 54.53,9.601C48.453,3.523 40.639,0.311 31.957,0.311ZM32.043,6.041C39.163,6.041 45.501,8.732 50.449,13.682C55.311,18.543 57.915,24.968 57.915,32C57.915,39.119 55.397,45.371 50.536,50.146C45.413,55.181 38.815,57.873 32.043,57.873C25.185,57.873 18.76,55.182 13.811,50.232C8.862,45.283 6.084,38.772 6.084,32C6.084,25.142 8.862,18.631 13.811,13.594C18.673,8.646 24.924,6.041 32.043,6.041Z" style="fill:white;fill-rule:nonzero;"/>
    <path id="a" d="M31.635,26.734C29.845,23.47 26.791,22.171 23.246,22.171C18.086,22.171 13.979,25.821 13.979,31.999C13.979,38.282 17.84,41.828 23.421,41.828C27.002,41.828 30.056,39.862 31.74,36.879L27.809,34.878C26.931,36.983 25.597,37.616 23.913,37.616C20.999,37.616 19.665,35.194 19.665,31.999C19.665,28.806 20.789,26.383 23.913,26.383C24.755,26.383 26.44,26.839 27.423,28.946L31.635,26.734Z" style="fill:white;fill-rule:nonzero;"/>
    <g id="a1" serif:id="a" transform="matrix(1,0,0,1,18.281,0)">
        <path d="M31.635,26.734C29.845,23.47 26.791,22.171 23.246,22.171C18.086,22.171 13.979,25.821 13.979,31.999C13.979,38.282 17.84,41.828 23.421,41.828C27.002,41.828 30.056,39.862 31.74,36.879L27.809,34.878C26.931,36.983 25.597,37.616 23.913,37.616C20.999,37.616 19.665,35.194 19.665,31.999C19.665,28.806 20.789,26.383 23.913,26.383C24.755,26.383 26.44,26.839 27.423,28.946L31.635,26.734Z" style="fill:white;fill-rule:nonzero;"/>
    </g>
</svg>
