<?xml version="1.0" encoding="UTF-8" standalone="no"?>
<!DOCTYPE svg PUBLIC "-//W3C//DTD SVG 1.1//EN" "http://www.w3.org/Graphics/SVG/1.1/DTD/svg11.dtd">
<svg width="100%" height="100%" viewBox="0 0 64 65" version="1.1" xmlns="http://www.w3.org/2000/svg" xmlns:xlink="http://www.w3.org/1999/xlink" xml:space="preserve" xmlns:serif="http://www.serif.com/" style="fill-rule:evenodd;clip-rule:evenodd;stroke-linejoin:round;stroke-miterlimit:2;">
    <g transform="matrix(1,0,0,1,0,0.00347222)">
        <path d="M31.188,0C13.906,0.438 0,14.613 0,32C0,49.664 14.336,64 32,64C49.664,64 64,49.664 64,32C64,14.336 49.664,0 32,0C31.723,0 31.461,-0.008 31.188,0ZM31.156,5.5C31.441,5.492 31.715,5.5 32,5.5C46.629,5.5 58.5,17.371 58.5,32C58.5,46.629 46.629,58.5 32,58.5C17.371,58.5 5.5,46.629 5.5,32C5.5,17.656 16.922,5.953 31.156,5.5Z" style="fill:white;fill-rule:nonzero;"/>
        <path d="M25.645,38.742C27.707,41.625 33.996,41.832 36.156,40.613C36.949,40.164 37.145,38.863 37.145,37.984C37.145,37.379 36.988,36.906 36.668,36.559C36.332,36.215 35.48,35.34 34.492,35.082C29.473,33.785 26,32.168 24.637,30.996C22.941,29.527 22.668,28.57 22.668,26.016C22.668,23.461 23.402,21.32 25.063,19.785C26.723,18.25 29.137,17.48 32.297,17.48C35.316,17.48 39.566,18.277 41.637,20.738L38.184,24.492C36.234,22.859 34.789,22.711 32.402,22.711C30.902,22.711 30.121,22.926 29.484,23.359C28.848,23.773 28.531,24.316 28.531,24.988C28.531,25.594 28.82,26.094 29.406,26.488C29.988,26.906 31.512,27.527 34.551,28.355C37.957,29.285 40.273,30.418 41.492,31.746C42.691,33.074 43.293,34.844 43.293,37.051C43.293,39.711 42.355,41.902 40.484,43.629C38.629,45.355 36.348,46.695 33.063,46.695C28.832,46.695 23.188,45.199 21.629,42.441" style="fill:white;fill-rule:nonzero;"/>
        <path d="M59.344,40.105L56.938,45.387L5.816,22.352L8.223,17.07L59.344,40.105Z" style="fill:white;fill-rule:nonzero;"/>
        <path d="M30.375,12.875L30.375,19.719L33.625,19.719L33.625,12.875L30.375,12.875ZM30.375,44.969L30.375,51.125L33.625,51.125L33.625,44.969L30.375,44.969Z" style="fill:white;fill-rule:nonzero;"/>
    </g>
</svg>
