<?xml version="1.0" encoding="UTF-8" standalone="no"?>
<!DOCTYPE svg PUBLIC "-//W3C//DTD SVG 1.1//EN" "http://www.w3.org/Graphics/SVG/1.1/DTD/svg11.dtd">
<svg width="100%" height="100%" viewBox="0 0 64 64" version="1.1" xmlns="http://www.w3.org/2000/svg" xmlns:xlink="http://www.w3.org/1999/xlink" xml:space="preserve" xmlns:serif="http://www.serif.com/" style="fill-rule:evenodd;clip-rule:evenodd;stroke-linejoin:round;stroke-miterlimit:2;">
    <g id="surface1">
        <path d="M31.188,0C13.906,0.438 0,14.613 0,32C0,49.664 14.336,64 32,64C49.664,64 64,49.664 64,32C64,14.336 49.664,0 32,0C31.723,0 31.461,-0.008 31.188,0ZM31.156,5.5C31.441,5.492 31.715,5.5 32,5.5C46.629,5.5 58.5,17.371 58.5,32C58.5,46.629 46.629,58.5 32,58.5C17.371,58.5 5.5,46.629 5.5,32C5.5,17.656 16.922,5.953 31.156,5.5Z" style="fill:white;fill-rule:nonzero;"/>
        <path d="M36.625,15.938C36.625,18.488 34.555,20.563 32,20.563C29.445,20.563 27.375,18.488 27.375,15.938C27.375,13.383 29.445,11.313 32,11.313C34.555,11.313 36.625,13.383 36.625,15.938Z" style="fill:white;fill-rule:nonzero;"/>
        <path d="M27.215,52.688L36.785,52.688L36.785,37.313L39.68,37.313C39.68,37.313 39.676,26.32 39.68,24.59C39.676,24.133 39.719,23.227 39.059,22.563C38.395,21.902 37.5,21.941 37.031,21.941C36.559,21.945 27.441,21.945 26.969,21.941C26.5,21.941 25.605,21.902 24.941,22.563C24.281,23.227 24.324,24.133 24.32,24.59C24.324,26.32 24.32,37.313 24.32,37.313L27.215,37.313L27.215,52.688Z" style="fill:white;fill-rule:nonzero;"/>
    </g>
</svg>
